<svg width="146" height="35" viewBox="0 0 146 35" fill="none" xmlns="http://www.w3.org/2000/svg">
<path d="M20.858 1.03436V11.4624C20.858 17.2222 16.1878 21.8904 10.428 21.8904C4.66822 21.8904 0 17.2222 0 11.4624V1.03436H4.01986V11.4624C4.01986 15.0023 6.88814 17.8725 10.428 17.8725C13.9679 17.8725 16.8381 15.0023 16.8381 11.4624V1.03436H20.858Z" fill="white"/>
<path d="M41.7139 11.4624V21.8904H37.696V11.4624C37.696 9.69147 36.978 8.08895 35.8187 6.92964C34.6594 5.77032 33.0568 5.05228 31.2859 5.05228C27.7461 5.05228 24.8758 7.9225 24.8758 11.4624V21.8904H20.8579V11.4624C20.8579 5.70258 25.5261 1.03436 31.2859 1.03436C34.1658 1.03436 36.7728 2.20142 38.6599 4.08845C40.5469 5.97548 41.7139 8.58248 41.7139 11.4624Z" fill="white"/>
<path d="M59.5178 4.08845C57.6288 2.20142 55.0218 1.03436 52.1419 1.03436C49.262 1.03436 46.655 2.20142 44.768 4.08845C42.8809 5.97548 41.7139 8.58248 41.7139 11.4624C41.7139 17.2222 46.384 21.8904 52.1419 21.8904C55.0218 21.8904 57.6288 20.7233 59.5178 18.8363C61.4048 16.9493 62.5718 14.3423 62.5718 11.4624C62.5718 8.58248 61.4048 5.97548 59.5178 4.08845ZM56.6746 15.9951C55.5153 17.1544 53.9128 17.8725 52.1419 17.8725C48.602 17.8725 45.7337 15.0023 45.7337 11.4624C45.7337 9.69147 46.4498 8.08895 47.6111 6.92964C48.7704 5.77032 50.371 5.05228 52.1419 5.05228C53.9128 5.05228 55.5153 5.77032 56.6746 6.92964C57.8339 8.08895 58.552 9.69147 58.552 11.4624C58.552 13.2333 57.8339 14.8358 56.6746 15.9951Z" fill="white"/>
<path d="M80.3742 4.08845C78.4872 2.20142 75.8802 1.03436 73.0003 1.03436C70.1204 1.03436 67.5134 2.20142 65.6264 4.08845C63.7393 5.97548 62.5723 8.58248 62.5723 11.4624C62.5723 17.2222 67.2405 21.8904 73.0003 21.8904C75.8802 21.8904 78.4872 20.7233 80.3742 18.8363C82.2613 16.9493 83.4283 14.3423 83.4283 11.4624C83.4283 8.58248 82.2613 5.97548 80.3742 4.08845ZM77.533 15.9951C76.3718 17.1544 74.7693 17.8725 73.0003 17.8725C69.4604 17.8725 66.5902 15.0023 66.5902 11.4624C66.5902 9.69147 67.3082 8.08895 68.4675 6.92964C69.6288 5.77032 71.2313 5.05228 73.0003 5.05228C74.7693 5.05228 76.3718 5.77032 77.533 6.92964C78.6923 8.08895 79.4104 9.69147 79.4104 11.4624C79.4104 13.2333 78.6923 14.8358 77.533 15.9951Z" fill="#FCCA0F"/>
<path d="M104.286 11.4624V21.8904H100.266V11.4624C100.266 9.69147 99.5497 8.08895 98.3885 6.92964C97.2292 5.77032 95.6286 5.05228 93.8577 5.05228C90.3178 5.05228 87.4476 7.9225 87.4476 11.4624V21.8904H83.4277V11.4624C83.4277 5.70258 88.0979 1.03436 93.8577 1.03436C96.7376 1.03436 99.3446 2.20142 101.232 4.08845C103.119 5.97548 104.286 8.58248 104.286 11.4624Z" fill="#FCCA0F"/>
<path d="M110.183 6.92964C109.022 8.08895 108.306 9.69147 108.306 11.4624C108.306 15.0023 111.174 17.8725 114.714 17.8725H125.144V21.8904H114.714C108.954 21.8904 104.286 17.2222 104.286 11.4624C104.286 8.58248 105.453 5.97548 107.34 4.08845C109.227 2.20142 111.834 1.03436 114.714 1.03436H125.144V5.05228H114.714C112.943 5.05228 111.343 5.77032 110.183 6.92964Z" fill="#FCCA0F"/>
<path d="M131.039 6.92964C129.88 8.08895 129.162 9.69147 129.162 11.4624C129.162 15.0023 132.032 17.8725 135.572 17.8725H146V21.8904H135.572C129.812 21.8904 125.144 17.2222 125.144 11.4624C125.144 8.58248 126.311 5.97548 128.198 4.08845C130.085 2.20142 132.692 1.03436 135.572 1.03436H146V5.05228H135.572C133.803 5.05228 132.201 5.77032 131.039 6.92964Z" fill="#FCCA0F"/>
<path d="M146 9.46696H135.572V13.4868H146V9.46696Z" fill="#FCCA0F"/>
<path d="M54.2032 27.1299V34.4109H53.4639V28.5853L50.6034 33.4838H50.2395L47.379 28.6163V34.409H46.6396V27.1279H47.2745L50.4369 32.5258L53.5684 27.1279H54.2032V27.1299Z" fill="white"/>
<path d="M61.3062 31.3007V27.1299H62.0764V31.2697C62.0764 32.9961 62.8874 33.7857 64.3022 33.7857C65.717 33.7857 66.5376 32.9961 66.5376 31.2697V27.1299H67.2866V31.3007C67.2866 33.3909 66.164 34.4728 64.3022 34.4728C62.4403 34.4728 61.3062 33.3909 61.3062 31.3007Z" fill="white"/>
<path d="M73.7026 33.5264L74.0046 32.9342C74.5252 33.4432 75.4503 33.8187 76.4083 33.8187C77.7709 33.8187 78.3631 33.2458 78.3631 32.5297C78.3631 30.5323 73.8807 31.7594 73.8807 29.0653C73.8807 27.9931 74.7129 27.0679 76.5651 27.0679C77.3877 27.0679 78.2393 27.3079 78.8218 27.7124L78.5625 28.326C77.9393 27.9195 77.2096 27.7221 76.5651 27.7221C75.2336 27.7221 74.6413 28.3143 74.6413 29.044C74.6413 31.0413 79.1237 29.8336 79.1237 32.4871C79.1237 33.5593 78.2702 34.4728 76.4083 34.4728C75.3168 34.4728 74.2446 34.0877 73.7046 33.5264H73.7026Z" fill="white"/>
<path d="M85.5918 27.1299H86.3621V34.4109H85.5918V27.1299Z" fill="white"/>
<path d="M92.8809 30.7704C92.8809 28.6376 94.5027 27.0679 96.6975 27.0679C97.7581 27.0679 98.7161 27.4221 99.3606 28.1285L98.871 28.6182C98.2787 28.0144 97.5491 27.755 96.7188 27.755C94.9614 27.755 93.6395 29.044 93.6395 30.7704C93.6395 32.4968 94.9614 33.7858 96.7188 33.7858C97.551 33.7858 98.2787 33.5264 98.871 32.9129L99.3606 33.4025C98.7161 34.109 97.7581 34.4748 96.6878 34.4748C94.5027 34.4748 92.8809 32.9032 92.8809 30.7723V30.7704Z" fill="white"/>
</svg>
