<?xml version="1.0" encoding="UTF-8"?>
<svg id="Layer_2" data-name="Layer 2" xmlns="http://www.w3.org/2000/svg" viewBox="0 0 129.75 129.75">
  <defs>
    <style>
      .cls-1 {
        fill: #ffcb00;
        stroke-width: 0px;
      }
    </style>
  </defs>
  <g id="Layer_1-2" data-name="Layer 1">
    <path class="cls-1" d="m64.87,0C29.05,0,0,29.05,0,64.87c0,13.55,4.16,26.14,11.27,36.54,4.87-10.44,10.5-20.71,16.94-30.81-7.38,2.94-13.88,6.52-19.85,10.48l-.2.08v-6.88c10.86-9.42,21.12-17.15,30.4-22.13,6.53,8.23,5.69,17.88,0,28.47-5.61,11.43-10.65,22.81-15.12,34.15,3.53,2.93,7.38,5.5,11.48,7.64,8.26-25.39,19.82-50.05,35.05-73.92-9.1,3.63-17.12,8.04-24.48,12.92l-.25.1v-8.48c13.39-11.61,26.04-21.14,37.48-27.28,8.05,10.15,7.02,22.05,0,35.11-11.22,22.85-20.59,45.54-28.08,68.06,3.33.53,6.74.8,10.22.8,3.11,0,6.17-.22,9.17-.65,6.67-20.16,15.92-39.76,28.03-58.73-7.38,2.94-13.88,6.52-19.85,10.48l-.2.08v-6.88c10.86-9.42,21.12-17.15,30.4-22.13,6.53,8.23,5.69,17.88,0,28.47-6.97,14.2-13.07,28.33-18.27,42.38,21.12-10.7,35.6-32.61,35.6-57.91C129.75,29.05,100.7,0,64.87,0Z"/>
  </g>
</svg>