<svg width="63" height="24" viewBox="0 0 63 24" fill="none" xmlns="http://www.w3.org/2000/svg">
<rect x="0.5" y="9" width="2" height="6" rx="1" fill="#D9D9D9"/>
<rect x="4.5" y="8" width="2" height="8" rx="1" fill="#D9D9D9"/>
<rect x="8.5" y="9" width="2" height="6" rx="1" fill="#D9D9D9"/>
<rect x="12.5" y="10" width="2" height="4" rx="1" fill="#D9D9D9"/>
<rect x="16.5" y="7" width="2" height="10" rx="1" fill="#D9D9D9"/>
<rect x="20.5" y="4" width="2" height="16" rx="1" fill="#D9D9D9"/>
<rect x="24.5" width="2" height="24" rx="1" fill="#D9D9D9"/>
<rect x="28.5" y="4" width="2" height="16" rx="1" fill="#D9D9D9"/>
<rect x="32.5" y="7" width="2" height="10" rx="1" fill="#D9D9D9"/>
<rect x="36.5" y="10" width="2" height="4" rx="1" fill="#D9D9D9"/>
<rect x="40.5" y="9" width="2" height="6" rx="1" fill="#D9D9D9"/>
<rect x="44.5" y="8" width="2" height="8" rx="1" fill="#D9D9D9"/>
<rect x="48.5" y="5" width="2" height="14" rx="1" fill="#D9D9D9"/>
<rect x="52.5" y="2" width="2" height="20" rx="1" fill="#D9D9D9"/>
<rect x="56.5" y="6" width="2" height="12" rx="1" fill="#D9D9D9"/>
<rect x="60.5" y="9" width="2" height="6" rx="1" fill="#D9D9D9"/>
</svg>
